<svg width="20" height="23" viewBox="0 0 20 23" fill="none" xmlns="http://www.w3.org/2000/svg">
<path d="M2.20871 19.3196V21.1831C2.20871 21.9721 6.01363 22.6119 10.7072 22.6119C15.4008 22.6119 19.2057 21.9724 19.2057 21.1831V19.3196H2.20871Z" fill="#E4AF18"/>
<path d="M10.431 20.7472V22.6107C10.523 22.6113 10.6146 22.6119 10.7072 22.6119C10.7998 22.6119 10.8914 22.6113 10.9834 22.6107V20.7472C10.8914 20.7478 10.7998 20.7484 10.7072 20.7484C10.6146 20.7484 10.523 20.7475 10.431 20.7472Z" fill="#C49214"/>
<path d="M12.0876 22.5927C12.274 22.5876 12.4577 22.5814 12.6397 22.5743V20.7108C12.4577 20.7179 12.2738 20.7241 12.0876 20.7291V22.5927Z" fill="#C49214"/>
<path d="M13.744 22.5174C13.9312 22.5052 14.1154 22.4922 14.2961 22.4779V20.6144C14.1154 20.6286 13.9312 20.6416 13.744 20.6538V22.5174Z" fill="#C49214"/>
<path d="M15.4003 22.3739C15.5902 22.3529 15.7738 22.3301 15.9525 22.3067V20.4431C15.7738 20.4668 15.59 20.4893 15.4003 20.5104V22.3739Z" fill="#C49214"/>
<path d="M17.0569 22.1321C17.2527 22.0951 17.4367 22.0563 17.609 22.016V20.1524C17.4367 20.1927 17.2527 20.2315 17.0569 20.2686V22.1321Z" fill="#C49214"/>
<path d="M8.77466 22.5743C8.95665 22.5814 9.14062 22.5876 9.32678 22.5927V20.7291C9.1404 20.7241 8.95665 20.7179 8.77466 20.7108V22.5743Z" fill="#C49214"/>
<path d="M7.11809 22.4782C7.29876 22.4925 7.48295 22.5055 7.67021 22.5177V20.6538C7.48295 20.6416 7.29876 20.6286 7.11809 20.6144V22.4782Z" fill="#C49214"/>
<path d="M5.46172 22.3067C5.64041 22.3304 5.82416 22.3529 6.01384 22.3739V20.5104C5.82394 20.4893 5.64041 20.4665 5.46172 20.4431V22.3067Z" fill="#C49214"/>
<path d="M3.80513 22.0162C3.97746 22.0565 4.16143 22.0953 4.35725 22.1324V20.2688C4.16143 20.2318 3.97746 20.193 3.80513 20.1526V22.0162Z" fill="#C49214"/>
<path d="M18.9354 19.6746C18.8099 19.757 18.6444 19.837 18.4373 19.9129V21.7765C18.6441 21.7003 18.8099 21.6206 18.9354 21.5382V19.6746Z" fill="#C49214"/>
<path d="M2.47433 19.6717V21.5352C2.60035 21.6188 2.76763 21.6997 2.97706 21.7765V19.9129C2.76741 19.8362 2.60035 19.7553 2.47433 19.6717Z" fill="#C49214"/>
<path d="M10.707 20.7492C15.4006 20.7492 19.2055 20.1095 19.2055 19.3204C19.2055 18.5314 15.4006 17.8917 10.707 17.8917C6.01339 17.8917 2.20848 18.5314 2.20848 19.3204C2.20848 20.1095 6.01339 20.7492 10.707 20.7492Z" fill="#FFD949"/>
<path d="M0 16.3378V18.2014C0 18.9903 3.80492 19.6302 8.49849 19.6302C13.1921 19.6302 16.997 18.9906 16.997 18.2014V16.3378H0Z" fill="#E4AF18"/>
<path d="M8.22255 17.7654V19.629C8.31453 19.6296 8.40608 19.6302 8.49872 19.6302C8.59136 19.6302 8.68291 19.6296 8.77489 19.629V17.7654C8.68291 17.766 8.59136 17.7666 8.49872 17.7666C8.40608 17.7666 8.31431 17.766 8.22255 17.7654Z" fill="#C49214"/>
<path d="M9.87891 19.6112C10.0653 19.6061 10.249 19.5999 10.431 19.5928V17.7292C10.249 17.7364 10.0651 17.7426 9.87891 17.7476V19.6112Z" fill="#C49214"/>
<path d="M11.5353 19.5359C11.7225 19.5238 11.9067 19.5107 12.0874 19.4965V17.6329C11.9067 17.6472 11.7225 17.6602 11.5353 17.6724V19.5359Z" fill="#C49214"/>
<path d="M13.1918 19.3925C13.3817 19.3715 13.5653 19.3486 13.744 19.3252V17.4617C13.5653 17.4854 13.3815 17.5079 13.1918 17.5289V19.3925Z" fill="#C49214"/>
<path d="M14.8482 19.1506C15.044 19.1136 15.228 19.0748 15.4003 19.0345V17.1709C15.228 17.2112 15.044 17.25 14.8482 17.2871V19.1506Z" fill="#C49214"/>
<path d="M6.56596 19.5926C6.74796 19.5997 6.93192 19.6059 7.11808 19.6109V17.7474C6.9317 17.7423 6.74796 17.7361 6.56596 17.729V19.5926Z" fill="#C49214"/>
<path d="M4.90959 19.4965C5.09027 19.5107 5.27445 19.5238 5.46171 19.5359V17.6724C5.27445 17.6602 5.09027 17.6472 4.90959 17.6329V19.4965Z" fill="#C49214"/>
<path d="M3.25302 19.3252C3.43172 19.3489 3.61547 19.3715 3.80514 19.3925V17.5289C3.61525 17.5079 3.43172 17.4851 3.25302 17.4617V19.3252Z" fill="#C49214"/>
<path d="M1.59665 19.0345C1.76898 19.0748 1.95295 19.1136 2.14877 19.1506V17.2871C1.95295 17.25 1.76898 17.2112 1.59665 17.1709V19.0345Z" fill="#C49214"/>
<path d="M16.7268 16.6932C16.6012 16.7756 16.4357 16.8556 16.2286 16.9315V18.795C16.4354 18.7188 16.6012 18.6391 16.7268 18.5567V16.6932Z" fill="#C49214"/>
<path d="M0.26564 16.6902V18.5537C0.391651 18.6373 0.558934 18.7182 0.768367 18.795V16.9314C0.558934 16.8544 0.391871 16.7738 0.26564 16.6902Z" fill="#C49214"/>
<path d="M8.49849 17.7678C13.1921 17.7678 16.997 17.1281 16.997 16.339C16.997 15.5499 13.1921 14.9102 8.49849 14.9102C3.80491 14.9102 0 15.5499 0 16.339C0 17.1281 3.80491 17.7678 8.49849 17.7678Z" fill="#FFD949"/>
<path d="M2.76082 13.3564V15.2199C2.76082 16.0089 6.56573 16.6487 11.2593 16.6487C15.9529 16.6487 19.7578 16.0089 19.7578 15.2199V13.3564H2.76082Z" fill="#E4AF18"/>
<path d="M10.9832 14.7837V16.6472C11.0751 16.6478 11.1667 16.6484 11.2593 16.6484C11.352 16.6484 11.4435 16.6478 11.5355 16.6472V14.7837C11.4435 14.7843 11.352 14.7849 11.2593 14.7849C11.1667 14.7849 11.0751 14.7843 10.9832 14.7837Z" fill="#C49214"/>
<path d="M12.6397 16.6294C12.8261 16.6244 13.0099 16.6182 13.1918 16.6111V14.7475C13.0099 14.7546 12.8259 14.7608 12.6397 14.7659V16.6294Z" fill="#C49214"/>
<path d="M14.2961 16.5542C14.4834 16.542 14.6675 16.529 14.8482 16.5147V14.6512C14.6675 14.6654 14.4834 14.6784 14.2961 14.6906V16.5542Z" fill="#C49214"/>
<path d="M15.9527 16.4108C16.1426 16.3897 16.3261 16.3669 16.5048 16.3435V14.4799C16.3261 14.5036 16.1424 14.5262 15.9527 14.5472V16.4108Z" fill="#C49214"/>
<path d="M17.609 16.1689C17.8049 16.1318 17.9888 16.093 18.1612 16.0527V14.1891C17.9888 14.2295 17.8049 14.2683 17.609 14.3053V16.1689Z" fill="#C49214"/>
<path d="M9.32678 16.6111C9.50877 16.6182 9.69274 16.6244 9.8789 16.6294V14.7659C9.69252 14.7608 9.50877 14.7546 9.32678 14.7475V16.6111Z" fill="#C49214"/>
<path d="M7.6702 16.5147C7.85087 16.529 8.03506 16.542 8.22232 16.5542V14.6906C8.03506 14.6784 7.85087 14.6654 7.6702 14.6512V16.5147Z" fill="#C49214"/>
<path d="M6.01384 16.3435C6.19254 16.3672 6.37629 16.3897 6.56596 16.4108V14.5472C6.37607 14.5262 6.19254 14.5033 6.01384 14.4799V16.3435Z" fill="#C49214"/>
<path d="M4.35748 16.053C4.52981 16.0933 4.71378 16.1321 4.9096 16.1692V14.3056C4.71378 14.2686 4.52981 14.2298 4.35748 14.1895V16.053Z" fill="#C49214"/>
<path d="M19.4876 13.7114C19.362 13.7938 19.1965 13.8738 18.9895 13.9497V15.8133C19.1963 15.7371 19.362 15.6574 19.4876 15.575V13.7114Z" fill="#C49214"/>
<path d="M3.02646 13.7084V15.572C3.15247 15.6556 3.31975 15.7365 3.52919 15.8132V13.9497C3.31975 13.8726 3.15247 13.792 3.02646 13.7084Z" fill="#C49214"/>
<path d="M11.2602 14.7863C15.9538 14.7863 19.7587 14.1467 19.7587 13.3576C19.7587 12.5685 15.9538 11.9288 11.2602 11.9288C6.56661 11.9288 2.7617 12.5685 2.7617 13.3576C2.7617 14.1467 6.56661 14.7863 11.2602 14.7863Z" fill="#FFD949"/>
<path d="M0.828293 10.3746V12.2382C0.828293 13.0271 4.63321 13.667 9.32679 13.667C14.0204 13.667 17.8253 13.0274 17.8253 12.2382V10.3746H0.828293Z" fill="#E4AF18"/>
<path d="M9.05061 11.8022V13.6658C9.1426 13.6664 9.23414 13.667 9.32678 13.667C9.41943 13.667 9.51097 13.6664 9.60295 13.6658V11.8022C9.51097 11.8028 9.41943 11.8034 9.32678 11.8034C9.23414 11.8034 9.1426 11.8028 9.05061 11.8022Z" fill="#C49214"/>
<path d="M10.7072 13.6477C10.8936 13.6426 11.0773 13.6364 11.2593 13.6293V11.7657C11.0773 11.7729 10.8934 11.7791 10.7072 11.7841V13.6477Z" fill="#C49214"/>
<path d="M12.3636 13.5724C12.5508 13.5603 12.735 13.5472 12.9157 13.533V11.6694C12.735 11.6837 12.5508 11.6967 12.3636 11.7089V13.5724Z" fill="#C49214"/>
<path d="M14.0201 13.4293C14.21 13.4083 14.3936 13.3854 14.5723 13.362V11.4985C14.3936 11.5222 14.2098 11.5447 14.0201 11.5657V13.4293Z" fill="#C49214"/>
<path d="M15.6765 13.1874C15.8723 13.1504 16.0563 13.1116 16.2286 13.0713V11.2077C16.0563 11.248 15.8723 11.2868 15.6765 11.3239V13.1874Z" fill="#C49214"/>
<path d="M7.39426 13.6293C7.57625 13.6364 7.76022 13.6426 7.94638 13.6477V11.7841C7.76 11.7791 7.57625 11.7729 7.39426 11.7657V13.6293Z" fill="#C49214"/>
<path d="M5.73767 13.5333C5.91835 13.5475 6.10253 13.5606 6.28979 13.5727V11.7092C6.10253 11.697 5.91835 11.684 5.73767 11.6697V13.5333Z" fill="#C49214"/>
<path d="M4.0813 13.3617C4.26 13.3854 4.44375 13.408 4.63342 13.429V11.5654C4.44353 11.5444 4.26 11.5216 4.0813 11.4982V13.3617Z" fill="#C49214"/>
<path d="M2.42473 13.0713C2.59706 13.1116 2.78103 13.1504 2.97685 13.1874V11.3239C2.78103 11.2868 2.59706 11.248 2.42473 11.2077V13.0713Z" fill="#C49214"/>
<path d="M17.555 10.73C17.4295 10.8124 17.2639 10.8924 17.0569 10.9683V12.8318C17.2637 12.7556 17.4295 12.6759 17.555 12.5935V10.73Z" fill="#C49214"/>
<path d="M1.09392 10.7267V12.5902C1.21993 12.6738 1.38721 12.7547 1.59664 12.8315V10.9679C1.38721 10.8912 1.21993 10.8103 1.09392 10.7267Z" fill="#C49214"/>
<path d="M9.32613 11.8049C14.0197 11.8049 17.8246 11.1652 17.8246 10.3761C17.8246 9.58702 14.0197 8.94733 9.32613 8.94733C4.63254 8.94733 0.827637 9.58702 0.827637 10.3761C0.827637 11.1652 4.63254 11.8049 9.32613 11.8049Z" fill="#FFD949"/>
<path d="M2.76082 7.39288V9.25644C2.76082 10.0454 6.56573 10.6852 11.2593 10.6852C15.9529 10.6852 19.7578 10.0457 19.7578 9.25644V7.39288H2.76082Z" fill="#E4AF18"/>
<path d="M10.9832 8.8205V10.6841C11.0751 10.6846 11.1667 10.6852 11.2593 10.6852C11.352 10.6852 11.4435 10.6846 11.5355 10.6841V8.8205C11.4435 8.82109 11.352 8.82168 11.2593 8.82168C11.1667 8.82168 11.0751 8.82109 10.9832 8.8205Z" fill="#C49214"/>
<path d="M12.6397 10.6662C12.8261 10.6612 13.0099 10.655 13.1918 10.6479V8.7843C13.0099 8.79141 12.8259 8.79764 12.6397 8.80268V10.6662Z" fill="#C49214"/>
<path d="M14.2961 10.591C14.4834 10.5788 14.6675 10.5658 14.8482 10.5515V8.68799C14.6675 8.70221 14.4834 8.71525 14.2961 8.7274V10.591Z" fill="#C49214"/>
<path d="M15.9527 10.4476C16.1426 10.4265 16.3261 10.4037 16.5048 10.3803V8.51672C16.3261 8.54043 16.1424 8.56296 15.9527 8.584V10.4476Z" fill="#C49214"/>
<path d="M17.609 10.2057C17.8049 10.1686 17.9888 10.1298 18.1612 10.0895V8.22595C17.9888 8.26626 17.8049 8.30508 17.609 8.34213V10.2057Z" fill="#C49214"/>
<path d="M9.32678 10.6476C9.50877 10.6547 9.69274 10.661 9.8789 10.666V8.80243C9.69252 8.79739 9.50877 8.79117 9.32678 8.78406V10.6476Z" fill="#C49214"/>
<path d="M7.6702 10.5515C7.85087 10.5658 8.03506 10.5788 8.22232 10.591V8.7274C8.03506 8.71525 7.85087 8.70221 7.6702 8.68799V10.5515Z" fill="#C49214"/>
<path d="M6.01384 10.3803C6.19254 10.404 6.37629 10.4265 6.56596 10.4476V8.584C6.37607 8.56296 6.19254 8.54014 6.01384 8.51672V10.3803Z" fill="#C49214"/>
<path d="M4.35748 10.0898C4.52981 10.1301 4.71378 10.1689 4.9096 10.206V8.34243C4.71378 8.30539 4.52981 8.26656 4.35748 8.22626V10.0898Z" fill="#C49214"/>
<path d="M19.4876 7.74823C19.362 7.83062 19.1965 7.91064 18.9895 7.98651V9.85007C19.1963 9.7739 19.362 9.69418 19.4876 9.61179V7.74823Z" fill="#C49214"/>
<path d="M3.02646 7.74524V9.6088C3.15247 9.69237 3.31975 9.77328 3.52919 9.85004V7.98648C3.31975 7.90943 3.15247 7.82881 3.02646 7.74524Z" fill="#C49214"/>
<path d="M11.2602 8.82046C15.9538 8.82046 19.7587 8.18077 19.7587 7.39168C19.7587 6.60258 15.9538 5.96289 11.2602 5.96289C6.56661 5.96289 2.7617 6.60258 2.7617 7.39168C2.7617 8.18077 6.56661 8.82046 11.2602 8.82046Z" fill="#FFD949"/>
<path d="M1.38042 4.41144V6.27499C1.38042 7.06392 5.18533 7.70378 9.87891 7.70378C14.5725 7.70378 18.3774 7.06422 18.3774 6.27499V4.41144H1.38042Z" fill="#E4AF18"/>
<path d="M9.60274 5.83905V7.70261C9.69472 7.7032 9.78627 7.70379 9.87891 7.70379C9.97155 7.70379 10.0631 7.7032 10.1551 7.70261V5.83905C10.0631 5.83964 9.97155 5.84024 9.87891 5.84024C9.78627 5.84024 9.69472 5.83935 9.60274 5.83905Z" fill="#C49214"/>
<path d="M11.2593 7.68448C11.4457 7.67944 11.6295 7.67322 11.8114 7.66611V5.80255C11.6295 5.80966 11.4455 5.81589 11.2593 5.82093V7.68448Z" fill="#C49214"/>
<path d="M12.9157 7.60921C13.1029 7.59706 13.2871 7.58402 13.4678 7.56979V5.70624C13.2871 5.72046 13.1029 5.7335 12.9157 5.74565V7.60921Z" fill="#C49214"/>
<path d="M14.5723 7.46581C14.7622 7.44476 14.9457 7.42194 15.1244 7.39853V5.53497C14.9457 5.55868 14.7619 5.58121 14.5723 5.60225V7.46581Z" fill="#C49214"/>
<path d="M16.2286 7.22393C16.4245 7.18689 16.6084 7.14806 16.7808 7.10776V5.2442C16.6084 5.28451 16.4245 5.32333 16.2286 5.36038V7.22393Z" fill="#C49214"/>
<path d="M7.94638 7.66611C8.12837 7.67322 8.31234 7.67944 8.4985 7.68448V5.82093C8.31212 5.81589 8.12837 5.80966 7.94638 5.80255V7.66611Z" fill="#C49214"/>
<path d="M6.29001 7.5701C6.47068 7.58433 6.65487 7.59737 6.84213 7.60952V5.74596C6.65487 5.73381 6.47068 5.72077 6.29001 5.70654V7.5701Z" fill="#C49214"/>
<path d="M4.63342 7.39853C4.81212 7.42224 4.99587 7.44476 5.18554 7.46581V5.60225C4.99565 5.58121 4.81212 5.55839 4.63342 5.53497V7.39853Z" fill="#C49214"/>
<path d="M2.97707 7.10806C3.1494 7.14837 3.33337 7.18719 3.52919 7.22424V5.36068C3.33337 5.32364 3.1494 5.28481 2.97707 5.24451V7.10806Z" fill="#C49214"/>
<path d="M18.1072 4.76648C17.9816 4.84887 17.8161 4.92889 17.609 5.00476V6.86832C17.8158 6.79215 17.9816 6.71243 18.1072 6.63004V4.76648Z" fill="#C49214"/>
<path d="M1.64604 4.76349V6.62705C1.77205 6.71062 1.93934 6.79153 2.14877 6.86829V5.00473C1.93934 4.92797 1.77205 4.84706 1.64604 4.76349Z" fill="#C49214"/>
<path d="M9.87934 5.83902C14.5729 5.83902 18.3778 5.19933 18.3778 4.41023C18.3778 3.62114 14.5729 2.98145 9.87934 2.98145C5.18575 2.98145 1.38084 3.62114 1.38084 4.41023C1.38084 5.19933 5.18575 5.83902 9.87934 5.83902Z" fill="#FFD949"/>
<path d="M2.48465 1.42969V3.29324C2.48465 4.08217 6.28957 4.72203 10.9831 4.72203C15.6767 4.72203 19.4816 4.08247 19.4816 3.29324V1.42969H2.48465Z" fill="#E4AF18"/>
<path d="M10.7072 2.8573V4.72086C10.7992 4.72145 10.8907 4.72204 10.9834 4.72204C11.076 4.72204 11.1676 4.72145 11.2595 4.72086V2.8573C11.1676 2.85789 11.076 2.85849 10.9834 2.85849C10.8907 2.85849 10.799 2.85789 10.7072 2.8573Z" fill="#C49214"/>
<path d="M12.3636 4.70304C12.5499 4.698 12.7337 4.69178 12.9157 4.68466V2.82111C12.7337 2.82822 12.5497 2.83444 12.3636 2.83948V4.70304Z" fill="#C49214"/>
<path d="M14.0201 4.62777C14.2074 4.61561 14.3916 4.60257 14.5723 4.58835V2.72479C14.3916 2.73902 14.2074 2.75206 14.0201 2.76421V4.62777Z" fill="#C49214"/>
<path d="M15.6765 4.48436C15.8664 4.46332 16.0499 4.4405 16.2286 4.41708V2.55353C16.0499 2.57724 15.8662 2.59976 15.6765 2.6208V4.48436Z" fill="#C49214"/>
<path d="M17.3331 4.24249C17.5289 4.20544 17.7129 4.16662 17.8852 4.12631V2.26276C17.7129 2.30306 17.5289 2.34189 17.3331 2.37893V4.24249Z" fill="#C49214"/>
<path d="M9.05061 4.68436C9.2326 4.69147 9.41657 4.69769 9.60273 4.70273V2.83918C9.41635 2.83414 9.2326 2.82791 9.05061 2.8208V4.68436Z" fill="#C49214"/>
<path d="M7.39426 4.58835C7.57493 4.60257 7.75912 4.61561 7.94638 4.62777V2.76421C7.75912 2.75206 7.57493 2.73902 7.39426 2.72479V4.58835Z" fill="#C49214"/>
<path d="M5.73767 4.41708C5.91637 4.44079 6.10012 4.46332 6.28979 4.48436V2.6208C6.0999 2.59976 5.91637 2.57694 5.73767 2.55353V4.41708Z" fill="#C49214"/>
<path d="M4.0813 4.12631C4.25363 4.16662 4.4376 4.20544 4.63342 4.24249V2.37893C4.4376 2.34189 4.25363 2.30306 4.0813 2.26276V4.12631Z" fill="#C49214"/>
<path d="M19.2114 1.78503C19.0858 1.86742 18.9203 1.94744 18.7133 2.02331V3.88687C18.9201 3.8107 19.0858 3.73098 19.2114 3.64859V1.78503Z" fill="#C49214"/>
<path d="M2.75029 1.78204V3.6456C2.8763 3.72918 3.04358 3.81008 3.25302 3.88684V2.02329C3.04358 1.94623 2.87652 1.86562 2.75029 1.78204Z" fill="#C49214"/>
<path d="M10.9836 2.85757C15.6772 2.85757 19.4821 2.21788 19.4821 1.42879C19.4821 0.639689 15.6772 0 10.9836 0C6.29 0 2.48509 0.639689 2.48509 1.42879C2.48509 2.21788 6.29 2.85757 10.9836 2.85757Z" fill="#FFD949"/>
</svg>
